<?xml version="1.0" encoding="utf-8"?>
<!-- Generator: Adobe Illustrator 23.0.1, SVG Export Plug-In . SVG Version: 6.00 Build 0)  -->
<svg version="1.1" id="Layer_1" xmlns="http://www.w3.org/2000/svg" xmlns:xlink="http://www.w3.org/1999/xlink" x="0px" y="0px"
	 viewBox="0 0 1080 1080" style="enable-background:new 0 0 1080 1080;" xml:space="preserve">
<style type="text/css">
	.st0{clip-path:url(#SVGID_2_);}
	.st1{fill:#004AAD;}
	.st2{clip-path:url(#SVGID_4_);}
</style>
<g>
	<defs>
		<rect id="SVGID_1_" x="63.9" y="190.6" width="918" height="250.8"/>
	</defs>
	<clipPath id="SVGID_2_">
		<use xlink:href="#SVGID_1_"  style="overflow:visible;"/>
	</clipPath>
	<g class="st0">
		<path class="st1" d="M187.9,440.9h670c68.4,0,124-56.1,124-125.1s-55.6-125.1-123.9-125.1h-670C119.6,190.6,64,246.7,64,315.7
			S119.6,440.9,187.9,440.9z M187.9,232.3h670c44.6,0,82.2,38.2,82.2,83.4s-37.7,83.4-82.2,83.4h-670c-44.6,0-82.2-38.2-82.2-83.4
			S143.4,232.3,187.9,232.3z"/>
	</g>
</g>
<g>
	<defs>
		<rect id="SVGID_3_" x="63.9" y="524" width="918" height="250.6"/>
	</defs>
	<clipPath id="SVGID_4_">
		<use xlink:href="#SVGID_3_"  style="overflow:visible;"/>
	</clipPath>
	<g class="st2">
		<path class="st1" d="M857.9,524.3h-670C119.6,524.3,64,580.4,64,649.4s55.6,125.1,123.9,125.1h670c68.4,0,124-56.1,124-125.1
			S926.2,524.3,857.9,524.3z M857.9,732.9h-670c-44.6,0-82.2-38.2-82.2-83.4s37.7-83.4,82.2-83.4h670c44.6,0,82.2,38.2,82.2,83.4
			S902.5,732.9,857.9,732.9z"/>
	</g>
</g>
</svg>
