<svg xmlns="http://www.w3.org/2000/svg" xmlns:xlink="http://www.w3.org/1999/xlink" width="1080" zoomAndPan="magnify" viewBox="0 0 810 809.999993" height="1080" preserveAspectRatio="xMidYMid meet" version="1.0"><defs><clipPath id="id1"><path d="M 433 693 L 681 693 L 681 803.574219 L 433 803.574219 Z M 433 693 " clip-rule="nonzero"/></clipPath><clipPath id="id2"><path d="M 130 693 L 379 693 L 379 803.574219 L 130 803.574219 Z M 130 693 " clip-rule="nonzero"/></clipPath><clipPath id="id3"><path d="M 199 6.324219 L 612 6.324219 L 612 488 L 199 488 Z M 199 6.324219 " clip-rule="nonzero"/></clipPath></defs><rect x="-81" width="972" fill="#ffffff" y="-80.999999" height="971.999992" fill-opacity="1"/><rect x="-81" width="972" fill="#ffffff" y="-80.999999" height="971.999992" fill-opacity="1"/><rect x="-81" width="972" fill="#ffffff" y="-80.999999" height="971.999992" fill-opacity="1"/><path fill="#f9ada3" d="M 282.566406 480.710938 L 188.605469 425.566406 C 182.105469 421.863281 174.964844 420.089844 167.984375 420.089844 C 153.003906 420.089844 138.667969 428.035156 131.203125 442.585938 C 131.097656 442.800781 131.042969 443.015625 130.988281 443.179688 L 92.007812 298.042969 C 86.207031 276.511719 64.945312 261.53125 43.09375 266.148438 C 23.386719 270.28125 10.285156 287.519531 10.285156 306.417969 C 10.285156 309.964844 10.714844 313.558594 11.679688 317.105469 L 71.335938 539.71875 C 74.179688 550.40625 80.25 560.015625 88.679688 567.210938 L 152.734375 622.140625 C 164.925781 632.609375 171.957031 647.859375 171.957031 663.914062 L 171.957031 693.605469 L 336.90625 693.605469 L 336.90625 575.535156 C 336.90625 536.550781 316.234375 500.46875 282.566406 480.710938 " fill-opacity="1" fill-rule="nonzero"/><path fill="#f9ada3" d="M 768.175781 266.148438 C 746.324219 261.53125 725.007812 276.511719 719.261719 298.042969 L 680.28125 443.179688 C 680.226562 443.015625 680.171875 442.800781 680.066406 442.585938 C 672.601562 428.035156 658.265625 420.089844 643.285156 420.089844 C 636.304688 420.089844 629.164062 421.863281 622.667969 425.566406 L 528.703125 480.710938 C 495.035156 500.46875 474.363281 536.550781 474.363281 575.535156 L 474.363281 693.605469 L 639.3125 693.605469 L 639.3125 663.914062 C 639.3125 647.859375 646.347656 632.609375 658.535156 622.140625 L 722.589844 567.210938 C 731.019531 560.015625 737.035156 550.40625 739.933594 539.71875 L 799.589844 317.105469 C 800.554688 313.558594 800.984375 309.964844 800.984375 306.417969 C 800.984375 287.519531 787.882812 270.28125 768.175781 266.148438 " fill-opacity="1" fill-rule="nonzero"/><g clip-path="url(#id1)"><path fill="#3b5bb2" d="M 433.125 693.605469 L 433.125 803.574219 L 680.550781 803.574219 L 680.550781 693.605469 L 433.125 693.605469 " fill-opacity="1" fill-rule="nonzero"/></g><g clip-path="url(#id2)"><path fill="#3b5bb2" d="M 130.722656 693.605469 L 130.722656 803.574219 L 378.144531 803.574219 L 378.144531 693.605469 L 130.722656 693.605469 " fill-opacity="1" fill-rule="nonzero"/></g><g clip-path="url(#id3)"><path fill="#a9d81b" d="M 611.820312 6.324219 L 611.820312 179.539062 C 611.820312 301.316406 544.59375 413.324219 437.101562 470.667969 L 405.636719 487.421875 L 374.171875 470.667969 C 266.675781 413.324219 199.449219 301.316406 199.449219 179.539062 L 199.449219 6.324219 L 218.941406 17.4375 C 266.941406 44.820312 325.363281 46.433594 374.546875 21.839844 L 405.636719 6.324219 L 436.722656 21.839844 C 485.90625 46.433594 544.328125 44.820312 592.167969 17.4375 L 611.820312 6.324219 " fill-opacity="1" fill-rule="nonzero"/></g><path fill="#54b236" d="M 510.390625 94.21875 C 476.457031 94.21875 442.414062 86.21875 412.078125 71.023438 L 405.582031 67.800781 L 399.246094 70.96875 C 368.855469 86.164062 334.8125 94.21875 300.824219 94.21875 C 285.199219 94.21875 269.628906 92.554688 254.433594 89.226562 L 254.433594 179.539062 C 254.433594 281.289062 310.21875 374.234375 399.996094 422.078125 L 405.636719 425.082031 L 411.273438 422.078125 C 501.050781 374.234375 556.835938 281.289062 556.835938 179.539062 L 556.835938 89.28125 C 541.640625 92.554688 526.070312 94.21875 510.390625 94.21875 " fill-opacity="1" fill-rule="nonzero"/><path fill="#479335" d="M 510.390625 94.21875 C 507.546875 94.21875 504.699219 93.84375 501.855469 93.738281 L 501.855469 179.539062 C 501.855469 272.699219 454.980469 358.394531 378.144531 408.976562 C 385.230469 413.59375 392.425781 418.050781 399.996094 422.078125 L 405.636719 425.082031 L 411.273438 422.078125 C 501.050781 374.234375 556.835938 281.289062 556.835938 179.539062 L 556.835938 89.28125 C 541.640625 92.554688 526.070312 94.21875 510.390625 94.21875 " fill-opacity="1" fill-rule="nonzero"/><path fill="#2b4da7" d="M 680.550781 734.84375 L 433.125 734.84375 L 433.125 693.605469 L 680.550781 693.605469 L 680.550781 734.84375 " fill-opacity="1" fill-rule="nonzero"/><path fill="#2b4da7" d="M 378.144531 734.84375 L 130.722656 734.84375 L 130.722656 693.605469 L 378.144531 693.605469 L 378.144531 734.84375 " fill-opacity="1" fill-rule="nonzero"/><path fill="#f4f6f5" d="M 483.382812 156.558594 L 378.144531 261.800781 L 335.242188 218.898438 C 329.871094 213.527344 321.175781 213.527344 315.804688 218.898438 C 310.433594 224.265625 310.433594 232.964844 315.804688 238.335938 L 368.425781 290.957031 C 371.109375 293.640625 374.601562 294.980469 378.144531 294.980469 C 381.6875 294.980469 385.175781 293.640625 387.863281 290.957031 L 502.820312 175.996094 C 508.191406 170.625 508.191406 161.929688 502.820312 156.558594 C 497.453125 151.191406 488.753906 151.191406 483.382812 156.558594 " fill-opacity="1" fill-rule="nonzero"/><path fill="#f57e6d" d="M 683.554688 453.863281 C 681.355469 466.210938 673.730469 477.648438 662.183594 484.308594 L 583.792969 527.53125 L 589.859375 539.71875 L 662.183594 498.054688 C 677.972656 488.980469 686.457031 470.992188 683.554688 453.863281 " fill-opacity="1" fill-rule="nonzero"/><path fill="#f57e6d" d="M 127.714844 453.863281 C 129.914062 466.210938 137.539062 477.648438 149.085938 484.308594 L 227.476562 527.53125 L 221.410156 539.71875 L 149.085938 498.054688 C 133.296875 488.980469 124.816406 470.992188 127.714844 453.863281 " fill-opacity="1" fill-rule="nonzero"/></svg>